<?xml version="1.0" encoding="iso-8859-1"?>
<!-- Generator: Adobe Illustrator 19.0.0, SVG Export Plug-In . SVG Version: 6.00 Build 0)  -->
<svg version="1.1" id="Layer_1" xmlns="http://www.w3.org/2000/svg" xmlns:xlink="http://www.w3.org/1999/xlink" x="0px" y="0px"
	 viewBox="0 0 511.997 511.997" style="enable-background:new 0 0 511.997 511.997;" xml:space="preserve">
<g transform="translate(1)">
	<g>
		<path style="fill:#2a2185;" d="M338.935,73.313l8.589,14.963H135.662l8.58-14.963c6.471-11.273,9.843-23.702,9.843-36.299
			C154.086,16.569,173.1,0,196.564,0h90.05c23.464,0,42.487,16.569,42.487,37.014C329.101,49.611,332.465,62.04,338.935,73.313
			L338.935,73.313z"/>
		<path style="fill:#2a2185;" d="M144.246,438.684l-8.589-14.963h211.862l-8.58,14.963c-6.471,11.273-9.843,23.702-9.843,36.299l0,0
			c0,20.445-19.015,37.014-42.478,37.014h-90.05c-23.464,0-42.487-16.569-42.487-37.014l0,0
			C154.08,462.386,150.717,449.957,144.246,438.684"/>
	</g>
	<path style="fill:#BDC3C7;" d="M413.917,291.309h-22.254v-70.621h22.254c7.212,0,13.056,5.844,13.056,13.056v44.509
		C426.973,285.465,421.129,291.309,413.917,291.309"/>
	<path style="fill:#354148;" d="M353.757,423.722H129.43c-20.939,0-37.906-16.967-37.906-37.906V126.18
		c0-20.939,16.967-37.906,37.906-37.906h224.327c20.93,0,37.906,16.967,37.906,37.906v259.637
		C391.662,406.756,374.687,423.722,353.757,423.722"/>
	<path style="fill:#F6D380;" d="M353.757,432.222H129.43c-25.588,0-46.406-20.817-46.406-46.405V126.18
		c0-25.588,20.817-46.406,46.406-46.406h224.327c25.588,0,46.405,20.817,46.405,46.406v259.637
		C400.162,411.405,379.345,432.222,353.757,432.222z M129.43,96.774c-16.214,0-29.406,13.191-29.406,29.406v259.637
		c0,16.214,13.191,29.405,29.406,29.405h224.327c16.214,0,29.405-13.191,29.405-29.405V126.18c0-16.214-13.191-29.406-29.405-29.406
		H129.43z"/>
	<g>
		<path style="fill:#4B5D66;" d="M197.453,388.412c-0.468,0-0.936-0.035-1.412-0.115c-3.416-0.556-6.188-3.054-7.106-6.391
			l-21.38-78.389l-24.55,36.829c-1.642,2.454-4.396,3.928-7.345,3.928h-17.655c-4.882,0-8.828-3.955-8.828-8.828
			c0-4.873,3.946-8.828,8.828-8.828h12.932l32.689-49.037c1.916-2.869,5.314-4.361,8.757-3.814c3.416,0.556,6.188,3.054,7.106,6.391
			l21.38,78.389l24.549-36.829c1.642-2.454,4.396-3.928,7.345-3.928h21.486l23.914-39.857c1.818-3.019,5.226-4.687,8.775-4.202
			c3.496,0.486,6.374,3.019,7.309,6.426l20.401,74.814l16.146-32.3c1.501-2.993,4.555-4.882,7.901-4.882h17.655
			c4.882,0,8.828,3.955,8.828,8.828s-3.946,8.828-8.828,8.828h-12.2l-24.038,48.084c-1.642,3.266-5.076,5.217-8.775,4.837
			c-3.637-0.362-6.674-2.931-7.645-6.462l-21.045-77.144l-15.837,26.403c-1.589,2.657-4.458,4.281-7.565,4.281h-21.76
			l-32.689,49.037C203.147,386.955,200.375,388.412,197.453,388.412"/>
		<path style="fill:#4B5D66;" d="M303.384,150.067H179.798c-4.882,0-8.828-3.955-8.828-8.828s3.946-8.828,8.828-8.828h123.586
			c4.882,0,8.828,3.955,8.828,8.828C312.211,146.112,308.266,150.067,303.384,150.067"/>
		<path style="fill:#4B5D66;" d="M303.384,185.378h-26.483c-4.882,0-8.828-3.955-8.828-8.828s3.946-8.828,8.828-8.828h26.483
			c4.882,0,8.828,3.955,8.828,8.828C312.211,181.423,308.266,185.378,303.384,185.378"/>
		<path style="fill:#4B5D66;" d="M241.591,185.378h-61.793c-4.882,0-8.828-3.955-8.828-8.828s3.946-8.828,8.828-8.828h61.793
			c4.882,0,8.828,3.955,8.828,8.828C250.418,181.423,246.472,185.378,241.591,185.378"/>
		<path style="fill:#4B5D66;" d="M303.384,220.688h-52.965c-4.882,0-8.828-3.955-8.828-8.828s3.946-8.828,8.828-8.828h52.965
			c4.882,0,8.828,3.955,8.828,8.828C312.211,216.733,308.266,220.688,303.384,220.688"/>
		<path style="fill:#4B5D66;" d="M215.108,220.688h-35.31c-4.882,0-8.828-3.955-8.828-8.828s3.946-8.828,8.828-8.828h35.31
			c4.882,0,8.828,3.955,8.828,8.828S219.99,220.688,215.108,220.688"/>
	</g>
</g>
<g>
</g>
<g>
</g>
<g>
</g>
<g>
</g>
<g>
</g>
<g>
</g>
<g>
</g>
<g>
</g>
<g>
</g>
<g>
</g>
<g>
</g>
<g>
</g>
<g>
</g>
<g>
</g>
<g>
</g>
</svg>
